# xmcd
#
# Track frame offsets:
#	150
#	14962
#	29594
#	42206
#	57847
#	69166
#	84670
#	99856
#	114335
#	130097
#
# Disc length: 1966 seconds
#
# Revision: 0
# Processed by: cddbd v1.5.1PL0 Copyright (c) Steve Scherf et al.
# Submitted via: dBpowerAMP V4.0
#
DISCID=7d07ac0a
DTITLE=Earl Thomas Conley - Fire and Smoke
DYEAR=1900
DGENRE=
TTITLE0=Fire and Smoke
TTITLE1=Silent Treatment
TTITLE2=Too Much Noise (Trucker's Waltz)
TTITLE3=Smokey Mountain Memories
TTITLE4=This Time I've Hurt Her More (Than She Loves Me)
TTITLE5=Tell Me Why
TTITLE6=After the Love Slips Away
TTITLE7=Your Love Is Just for Strangers (I Suppose)
TTITLE8=Like Cinderella
TTITLE9=As Low as You Can Go
EXTD=
EXTT0=
EXTT1=
EXTT2=
EXTT3=
EXTT4=
EXTT5=
EXTT6=
EXTT7=
EXTT8=
EXTT9=
PLAYORDER=
